<?xml version="1.0" encoding="utf-8"?>
<!-- Generator: Adobe Illustrator 21.1.0, SVG Export Plug-In . SVG Version: 6.00 Build 0)  -->
<svg version="1.1" id="Layer_1" xmlns="http://www.w3.org/2000/svg" xmlns:xlink="http://www.w3.org/1999/xlink" x="0px" y="0px"
	 viewBox="0 0 581.7 127.3" style="enable-background:new 0 0 581.7 127.3;" xml:space="preserve">
<g>
	<path style="fill: #004054;" d="M0.6,48.6c0-7-0.1-12.7-0.6-18.3h10.9l0.7,11.2h0.3c3.4-6.4,11.2-12.7,22.4-12.7c9.4,0,23.9,5.6,23.9,28.8V98H45.9V59
		c0-10.9-4.1-20-15.7-20c-8.1,0-14.4,5.7-16.5,12.6c-0.6,1.5-0.8,3.6-0.8,5.7V98H0.6V48.6z"/>
	<path style="fill: #004054;" d="M136.8,63.6c0,25.1-17.4,36-33.7,36c-18.3,0-32.5-13.4-32.5-34.9c0-22.7,14.8-36,33.6-36C123.6,28.7,136.8,42.9,136.8,63.6
		z M83,64.3c0,14.8,8.5,26,20.6,26c11.8,0,20.6-11.1,20.6-26.3c0-11.5-5.7-26-20.3-26C89.3,38,83,51.4,83,64.3z"/>
	<path style="fill: #004054;" d="M149.5,48.6c0-7-0.1-12.7-0.6-18.3h10.9l0.7,11.2h0.3c3.4-6.4,11.2-12.7,22.4-12.7c9.4,0,23.9,5.6,23.9,28.8V98h-12.3V59
		c0-10.9-4.1-20-15.7-20c-8.1,0-14.4,5.7-16.5,12.6c-0.6,1.5-0.8,3.6-0.8,5.7V98h-12.3V48.6z"/>
	<path style="fill: #004054;" d="M241.9,10.5c0,5.9-4.5,10.6-11.5,10.6c-6.7,0-11.2-4.8-11.1-10.6c-0.1-6.2,4.3-10.8,11.2-10.8
		C237.4-0.3,241.8,4.4,241.9,10.5z M219.9,98V29.6h21.3V98H219.9z"/>
	<path style="fill: #004054;" d="M252.7,51.4c0-8.5-0.3-15.8-0.6-21.8h17.9l1,9.2h0.4c2.9-4.3,9-10.8,20.7-10.8c8.8,0,15.8,4.5,18.8,11.6h0.3
		c2.5-3.6,5.6-6.3,8.8-8.3c3.8-2.2,8-3.4,13-3.4c13.2,0,23.1,9.2,23.1,29.7V98h-20.7V60.8c0-9.9-3.2-15.7-10.1-15.7
		c-4.9,0-8.4,3.4-9.8,7.4c-0.6,1.5-0.8,3.8-0.8,5.5v40H294V59.7c0-8.7-3.1-14.6-9.8-14.6c-5.5,0-8.7,4.2-9.9,7.7
		c-0.7,1.7-0.8,3.6-0.8,5.3V98h-20.7V51.4z"/>
	<path style="fill: #004054;" d="M427.4,81.4c0,6.6,0.3,12.9,1,16.7h-19.2l-1.3-6.9h-0.4c-4.5,5.5-11.5,8.4-19.6,8.4c-13.9,0-22.1-10.1-22.1-21
		c0-17.8,16-26.3,40.2-26.2v-1c0-3.6-2-8.8-12.5-8.8c-7,0-14.4,2.4-18.9,5.2L370.7,34c4.8-2.7,14.1-6,26.6-6
		c22.8,0,30.1,13.4,30.1,29.5V81.4z M406.7,65.7c-11.2-0.1-19.9,2.5-19.9,10.8c0,5.5,3.6,8.1,8.4,8.1c5.3,0,9.7-3.5,11.1-7.8
		c0.3-1.1,0.4-2.4,0.4-3.6V65.7z"/>
	<path style="fill: #004054;" d="M506.2,88.1c0,13.2-2.7,23.9-10.4,30.8c-7.6,6.4-17.8,8.4-27.9,8.4c-9,0-18.5-1.8-24.6-5.3l4.2-16.1
		c4.3,2.5,11.9,5.2,19.9,5.2c10.1,0,17.8-5.5,17.8-18.1v-4.5H485c-4.1,5.7-10.6,9-18.5,9c-16.9,0-29-13.7-29-33.5
		c0-22,14.3-36,31.1-36c9.4,0,15.3,4.1,18.8,9.7h0.3l0.7-8.1h18.5c-0.3,4.3-0.6,10.1-0.6,20.3V88.1z M485,57.4
		c0-1.4-0.1-2.8-0.4-3.9c-1.5-5.6-5.6-9.4-11.5-9.4c-7.7,0-14,7-14,19.5c0,10.2,5,18.2,14,18.2c5.5,0,9.8-3.6,11.2-8.7
		c0.6-1.5,0.7-3.8,0.7-5.6V57.4z"/>
	<path style="fill: #004054;" d="M536.9,70.6c0.7,8.8,9.4,13,19.3,13c7.3,0,13.2-1,18.9-2.8l2.8,14.4c-7,2.8-15.5,4.3-24.8,4.3c-23.2,0-36.5-13.6-36.5-35
		c0-17.4,10.8-36.5,34.6-36.5c22.1,0,30.5,17.2,30.5,34.2c0,3.6-0.4,6.9-0.7,8.4H536.9z M562,56c0-5.2-2.2-13.9-12-13.9
		c-9,0-12.6,8.1-13.2,13.9H562z"/>
</g>
</svg>
