<!DOCTYPE svg PUBLIC "-//W3C//DTD SVG 1.1//EN" "http://www.w3.org/Graphics/SVG/1.1/DTD/svg11.dtd" [
	<!ENTITY ns_flows "http://ns.adobe.com/Flows/1.0/">
]><svg xmlns="http://www.w3.org/2000/svg" width="285" height="23" viewBox="0 0 285 23" overflow="visible"><path fill="#11516D" d="M19.06 21.492L0 2.432 2.432.002l19.06 19.058z"/><path fill="#11516D" d="M38.12 2.43L19.06 21.49l-2.43-2.43L35.69 0z"/><path fill="#11516D" d="M51.437 20.607L33.263 2.433 35.695 0l18.173 18.175z"/><path fill="#11516D" d="M69.613 2.43L51.44 20.606l-2.433-2.43L67.18 0z"/><path fill="#11516D" d="M83.81 21.492L64.75 2.432l2.432-2.43 19.06 19.058z"/><path fill="#11516D" d="M101.385 3.913L83.807 21.49l-2.432-2.43L98.953 1.48z"/><path fill="#11516D" d="M98.946 1.48l17.578 17.578-2.432 2.432L96.514 3.912z"/><path fill="#11516D" d="M131.66 3.912L114.08 21.49l-2.43-2.432L129.226 1.48z"/><path fill="#11516D" d="M129.22 1.48l17.577 17.58-2.43 2.43-17.58-17.578z"/><path fill="#11516D" d="M160.542 5.31l-16.18 16.18-2.433-2.432 16.18-16.18z"/><path fill="#11516D" d="M173.847 23.483L155.674 5.31l2.432-2.43 18.172 18.17z"/><path fill="#11516D" d="M192.03 5.307l-18.17 18.17-2.432-2.43L189.6 2.875z"/><path fill="#11516D" d="M205.348 23.483L187.175 5.31l2.432-2.432L207.78 21.05z"/><path fill="#11516D" d="M223.533 5.306L205.36 23.478l-2.43-2.432L221.1 2.874z"/><path fill="#11516D" d="M221.108 2.876l17.578 17.578-2.432 2.432-17.578-17.578z"/><path fill="#11516D" d="M253.853 5.308l-17.578 17.578-2.432-2.432L251.42 2.877z"/><path fill="#11516D" d="M267.16 23.483L248.986 5.31l2.43-2.43 18.174 18.172z"/><path fill="#11516D" d="M285.343 5.305l-18.17 18.172-2.433-2.432 18.172-18.172z"/></svg>