<?xml version="1.0" encoding="utf-8"?>
<!-- Generator: Adobe Illustrator 15.0.0, SVG Export Plug-In  -->
<!DOCTYPE svg PUBLIC "-//W3C//DTD SVG 1.1//EN" "http://www.w3.org/Graphics/SVG/1.1/DTD/svg11.dtd" [
	<!ENTITY ns_flows "http://ns.adobe.com/Flows/1.0/">
]>
<svg version="1.1"
	 xmlns="http://www.w3.org/2000/svg" xmlns:xlink="http://www.w3.org/1999/xlink" xmlns:a="http://ns.adobe.com/AdobeSVGViewerExtensions/3.0/"
	 x="0px" y="0px" width="259px" height="270px" viewBox="0 0 259 270" overflow="visible" enable-background="new 0 0 259 270"
	 xml:space="preserve">
<defs>
</defs>
<path fill-rule="evenodd" clip-rule="evenodd" fill="#939081" d="M252.535,185.208c-1.5,2.188-8.826-4.982-7.947-5.5
	c3.64-13.881,6.732-29.289,10.541-43c-2.125-6.5-6.321-11.666-9.608-17.499c-1.036,15.377-3.668,30.073-9.84,42.241
	c-5.874,11.578-11.544,22.873-19.92,32.158c-1.661,1.842-3.242,3.65-4.801,5.521c-3.643,4.371-4.206,5.078-11.76,11.039
	c-2.938,2.32-11.279,6.506-15.113,8.373c-7.948,3.871-12.582,5.498-21.847,7.707c0.565,4.088,2.289,8.289,2.641,12.961
	c0.622,8.289-0.27,16.334,1.199,22.32c3.241,0.158,8.376,0.984,7.681,4.318c-0.729,3.498-11.185,2.334-12.132-0.641
	c-0.309-0.969,0.09-1.588,0.852-3.199c-2.199-12.059-0.186-25.039-4.08-34.799c-11.129,3.898-24.806,5.764-38.16,4.559
	c-2.062-0.186-4.303-0.955-6.48-1.439c-4.007-0.893-7.805-1.424-11.279-3.119c-1.74,2.309-3.24,5.895-3.6,9.359
	c-0.877,8.447-0.289,21.678,0.248,27.67c2.75,1.094,2.031,3.5,1.156,4.25c-1.531,1.812-14.531,1.885-13.197-2.947
	c0.333-1.834,4.5-1.582,7.953-1.613c-0.002-12.309-1.867-26.379,2.879-37.92c-5.462-2.176-11.023-3.611-16.08-5.76
	c-5.182-2.201-10.082-6.043-14.211-9.416c-2.452-2.002-3.737-2.934-6.125-4.75c-7.117-5.416-13.716-11.359-19.744-18.953
	c-2.559-3.225-4.463-7.326-6.479-11.041c-4.162-7.664-7.038-15.832-10.08-24.959c-0.688-2.066-1.643-4.441-2.16-6.721
	c-0.533-2.348-0.606-4.213-1.537-6.326c-1.257-2.854-4.018-5.365-5.625-7.5c-3.868-5.139-6.5-8.625-10.838-14.734
	c-1.436-2.021-5.041-5.556-5.04-6.96c0.001-2.776,5.829-11.976,6.24-12.72c1.701-3.077,4.818-6.359,7.44-9.6
	c3.787-4.68,7.001-8.613,11.28-12.24c-0.677-2.096-4.123-5.206-1.68-6.24c2.036-0.444,4.784,3.217,6.24,5.76
	c3.484-7.613,5.884-15.758,10.56-22.56c7.01-10.196,11.967-21.226,22.561-27.84c3.229-2.016,6.245-3.803,9.738-5.867
	c1.41-0.833,3.024-1.703,4.422-2.533c5.59-3.321,12.476-4.585,19.199-6.96c7.121-2.515,14.727-4.096,23.521-5.76
	c3.107-0.588,6.083-1.664,9.12-1.92c22.438-1.895,39.039,2.997,53.76,10.32c6.562,3.264,12.288,7.491,18.479,11.76
	c8.541,5.888,17.092,13.312,23.04,22.32c2.035,3.082,4.312,6.321,5.761,9.36c3.127,6.558,6.655,13.139,9.359,19.92
	c1.47,3.684,2.988,8.504,3.84,12.96c0.558,2.911,1.799,5.591,2.16,8.16c0.974,6.918-0.224,10.352,0.48,17.04
	c3.941,6.458,8.233,13.458,11.52,19.679c2.714,6.154,1.541,5.955,0.48,10.32c-0.625,2.572-1.745,5.436-2.4,8.881
	c-1.13,5.941-2.689,11.66-4.08,18.24c-0.603,2.85-2.214,7.256-1.92,9.119C249.492,180.843,253.41,182.052,252.535,185.208z
	 M34.32,73.37c-1.755,4.104-3.966,7.677-5.52,12.24c-2.273,6.677-3.916,14.835-5.04,23.52c-1.378,10.644-0.357,20.629,1.44,29.76
	c1.488,7.561,3.297,12.951,5.52,19.199c1.245,3.498,2.81,6.91,4.081,10.32c3.807,10.221,10.074,18.598,17.039,25.199
	c5.01,4.748,9.604,8.629,15.121,12.721c3.543,2.629,3.021,3.324,7.68,6.24c10.716,6.709,23.646,10.822,37.68,13.92
	c10.908,2.408,22.896,2.717,34.08,0.24c2.608-0.578,5.246-1.148,7.854-1.896c2.922-0.84,5.992-1.422,8.946-2.184
	c2.692-0.695,5.449-2.156,8.4-3.119c6.028-1.971,10.983-4.441,16.08-6.961c2.619-1.295,5.471-2.471,7.68-3.84
	c6.772-4.199,11.207-10.057,16.08-15.84c2.523-2.996,5.035-5.867,7.2-8.881c3.74-5.205,6.947-10.789,10.319-16.799
	c0.357-0.637,4.083-8.168,5.521-11.281c7.514-16.277,8.874-39.66,7.2-58.799c-0.334-3.816-1.253-7.946-2.4-11.76
	c-3.384-11.247-7.923-20.431-12.72-30c-1.477-2.945-3.785-5.764-5.76-8.4c-1.782-2.377-3.573-4.669-5.28-6.48
	c-9.437-10.008-19.879-18.526-31.44-24.72c-2.657-1.046-7.705-3.877-11.279-5.28c-11.479-4.506-24.456-8.104-41.521-6.96
	c-2.763,0.186-5.91,0.116-8.88,0.72c-2.421,0.492-4.826,1.608-7.439,2.16c-2.383,0.503-4.763,0.915-7.201,1.44
	c-5.022,1.083-9.634,3.83-14.399,5.04c-2.575,0.654-4.597,1.034-6.479,1.68c-0.812,0.278-1.529,0.615-2.127,0.888
	c-3.441,1.574-7.807,3.603-10.875,5.25c-5.55,2.979-9,5.491-13.158,9.222c-3.977,3.568-7.741,7.96-10.561,12.72 M15.12,90.169
	c-2.367,3.038-3.52,4.35-5.28,7.44c-0.487,0.854-2.351,3.585-2.92,4.598c-2.483,4.416-3.168,6.119-3.08,6.922
	c0.141,1.283,3.154,4.059,4.08,5.279c4.374,5.771,8.251,11.264,12.48,16.321c-1.73-21.026,0.99-39.156,7.44-53.52
	C22.592,80.521,19.505,85.995,15.12,90.169z"/>
<path fill-rule="evenodd" clip-rule="evenodd" fill="#939081" d="M90.041,36.297c-2.57-0.362-3.371-0.181-5.761,0
	c-0.517,0.497-0.841,1.186-1.28,1.76c-0.876,5.858-0.496,12.239-1.279,18.72c1.162,2.824-0.342,7.614,0.16,10.88
	c-0.494,0.698-0.496,2.979,0,3.68c-0.527,1-0.312,3.457-0.32,5.28c-0.004,0.625-0.232,2.198-0.16,3.36
	c0.057,0.915,0.76,2.037,0.16,2.72c0.276,0.577,0.611,1.095,1.12,1.44c3.378-0.283,5.616,0.79,8.479,0
	c0.271-0.562,1.548-1.804,1.76-2.4c0.246-0.69,0.562-2.888,0.641-3.52c0.068-0.551,0.132-1.465,0-2.24
	c-0.163-0.958-0.481-2.445-0.48-4c-3.773-0.041-5.426,1.757-7.52-0.96c0.611-3.071,5.337-1.633,7.04-2.56
	c0.821-0.447,1.036-1.883,2.239-1.76c0.613,0.063,1.898,1.465,2.08,2.08c0.198,0.667-0.326,1.498-0.319,2.24
	c0.003,0.379,0.442,0.692,0.479,1.12c0.15,1.739-1.09,4.209,0,5.92c-0.756,4.464-1.91,8.539-5.92,10.08
	c-2.966-0.625-5.957,0.547-9.279-0.32c-1.176-0.307-3.086-1.598-3.521-2.56c-0.883-1.954,0.376-4.583-0.319-7.52
	c-0.075-0.341,0.229-0.305,0.479-0.32c-0.931-7.265,0.962-16.029-0.32-24.16c1.603-5.101-0.081-12.346,1.761-17.12
	c1.44-3.734,7.142-3.655,11.199-2.88c0.438,0.792,1.652,0.856,2.4,1.6c1.103,1.097,2.629,5.121-0.641,4.32
	C91.8,38.903,91.105,36.562,90.041,36.297z"/>
<path fill-rule="evenodd" clip-rule="evenodd" fill="#939081" d="M142.68,47.657c-0.394,0.666-0.388,1.713,0,2.4
	c-0.638,1.93,0.208,4.646,0.16,7.2c-0.021,1.095-0.998,2.59,0.159,3.36c-0.382,3.21-0.212,8.162-3.199,9.28
	c-0.128,0.299-0.268,0.586-0.32,0.96c-1.26,0.287-1.786,1.307-2.4,2.24c-0.605,0.087-0.999,0.387-1.76,0.32
	c0.414,1.141,1.755,1.878,2.4,3.2c0.79,1.618,2.879,2.99,3.68,4.32c0.189,0.314,0.11,0.88,0.32,1.28
	c0.581,1.112,1.253,1.614,1.279,2.72c0.023,0.932-0.707,1.295-0.159,2.08c-0.833,0.543-1.628,1.563-2.881,0.8
	c-0.343-0.51-0.263-1.443-0.96-1.6c-0.768-4.939-4.445-6.968-7.04-10.08c-0.905,0.052-1.236-0.47-2.079-0.48
	c-0.583,2.958,0.571,5.563-0.641,8.64c0.307,0.44,0.68,0.814,1.12,1.12c-0.943,0.07-1.357,0.668-1.6,1.44
	c-0.933-0.025-1.879-0.065-2.4,0.32c-0.694-1.487-0.351-2.804-0.64-4.16c0.371,0.051,0.613-0.025,0.8-0.16
	c-0.037-6.701-0.391-15.091-0.32-21.92c-0.06-0.527-0.374-0.799-0.64-1.12c1.312-1.376,0.861-3.12,0.64-4.8
	c-0.122-0.93,0.312-1.847,0.32-3.04c0.013-1.66-0.352-3.566-0.32-5.28c0.011-0.547,0.091-1.246,0-1.76
	c-0.146-0.831-0.521-2.182-0.479-3.68c0.01-0.376,0.258-0.722,0.32-1.12c0.229-1.479-0.51-3.051-0.32-4.16
	c0.244-1.431,1.904-2.479,3.68-1.92c0.234-0.139,0.507-0.239,0.48-0.64c1.411,0.01,2.637,1.237,3.84,0.479
	c1.991,0.782,4.018,1.529,5.12,3.2c0.959-0.159,0.792,0.808,1.6,0.8c0.656,3.077,1.45,6.017,1.6,9.6
	C142.089,47.714,142.441,47.63,142.68,47.657z M130.2,38.857c-1.586,0.768-0.796,3.291-0.319,4.64
	c-0.529,2.234,0.288,4.339,0.159,6.56c-0.054,0.938-0.61,1.951-0.64,2.88c-0.029,0.931,0.619,1.934,0.64,2.88
	c0.019,0.822-0.489,1.518-0.479,2.24c0.008,0.629,0.421,1.135,0.479,1.76c0.105,1.123-0.61,2.119-0.159,3.2
	c-1.367,1.895,0.516,4.68-0.32,6.72c0.251,0.015,0.555-0.021,0.479,0.32c-0.033,0.352-0.391,1.192-0.159,1.28
	c0.879-0.4,2.214-0.464,3.359-0.32c2.046-1.74,4.874-2.818,5.28-5.92c0.146-1.121-0.478-2.146,0.16-3.36
	c0.104-0.637-0.424-0.643-0.32-1.28c0.243-0.503,0.478-1.016,0.64-1.6c-0.218-0.315-0.152-0.914-0.319-1.28
	c1.218-4.057-0.471-9.688-0.641-14.72c-0.474-0.7-0.982-1.364-0.96-2.56c-1.689-1.018-3.457-2.95-6.08-2.72
	c-0.388,0.034-0.697,0.303-1.119,0.32C129.932,38.271,130.072,38.558,130.2,38.857z"/>
<path fill-rule="evenodd" clip-rule="evenodd" fill="#939081" d="M164.919,37.897c0.497,3.023,1.454,5.587,1.44,9.12
	c0.225,0.202,0.009,0.844,0.64,0.64c-0.37,3.769,0.401,7.909-0.159,12.32c0.02,0.407,0.232,0.621,0.64,0.64
	c-0.498,3.078-0.178,7.913-3.2,9.28c-0.332,0.042-0.044,0.703-0.32,0.8c-1.016,0.584-1.95,1.25-2.399,2.4
	c-0.596,0.205-1.35,0.251-1.92,0.48c0.396,0.933,1.703,1.413,2.399,2.4c0.163,0.231-0.003,0.584,0.16,0.8
	c0.925,1.221,2.71,2.592,3.521,4c0.201,0.35,0.134,0.786,0.319,1.12c0.429,0.771,1.395,1.546,1.44,2.88
	c0.031,0.917-0.777,1.457-0.16,2.24c-0.9,0.353-1.368,1.535-2.72,0.96c-0.507-0.56-0.571-1.562-1.28-1.92
	c-0.712-4.781-4.224-6.763-6.72-9.76c-0.769-0.192-1.43-0.491-2.24-0.64c-0.705,2.473,0.423,6.125-0.64,8.64
	c0.222,0.524,0.735,0.758,1.12,1.12c-1.017,0.05-1.387,0.747-1.761,1.44c-0.897-0.044-1.738-0.032-2.239,0.32
	c-0.678-1.504-0.623-2.533-0.641-4.16c0.214,0,0.427,0,0.641,0c-0.303-0.925,0.139-1.902,0.159-2.88
	c0.033-1.528-0.358-3.254-0.319-4.96c0.07-3.148,0.384-6.57,0.16-9.44c-0.05-0.635-0.438-1.171-0.48-1.76
	c-0.106-1.469,0.83-3.081-0.32-4.16c1.134-1.335,0.8-2.869,0.641-4.64c-0.422-4.692,0.434-9.996-0.641-13.76
	c0.707-1.494,0.475-3.987,0-5.6c0.621-1.153,1.945-2.41,3.841-1.76c0.847-1.616,3.053,0.89,4.319-0.16
	c0.369-0.049,0.178,0.462,0.48,0.48C161.809,34.501,162.535,37.029,164.919,37.897z M157.56,71.017
	c1.954-1.545,4.972-2.876,5.439-5.76c0.134-0.819-0.178-1.78-0.319-2.72c0.344-0.136,0.565-0.394,0.479-0.96
	c-0.002-0.478-0.416-0.544-0.479-0.96c0.251-0.442,0.497-0.89,0.64-1.44c-0.089-1.67,0.002-3.444,0.32-4.8
	c-0.787-1.554-0.096-2.935-0.16-4.48c-0.063-1.517-0.916-2.829-1.12-4.32c-0.298-2.179-0.101-3.704-0.8-5.12
	c-1.713-1.394-4.396-3.784-7.36-2.4c0.237,0.136,0.344,0.403,0.32,0.8c-1.494,1.093-0.478,2.995-0.32,4.64
	c0.218,2.266,0.444,5.261,0.16,7.68c-0.066,0.566-0.463,1.191-0.479,1.76c-0.058,1.938,1.136,3.362,0,4.96
	c1.108,3.292-0.42,7.254,0.159,11.68c0.942,0.046-0.071,1.396,0.32,1.76C155.159,70.962,156.51,70.901,157.56,71.017z"/>
<path fill-rule="evenodd" clip-rule="evenodd" fill="#939081" d="M119.16,38.057c-0.512,0.808-1.138,1.644-2.08,1.76
	c-0.527,0.065-1.162-0.461-1.92-0.48c-0.359-0.009-0.795,0.346-1.119,0.32c-2.09-0.169-4.441-1.388-6.561-1.28
	c-0.253,11.415-0.617,22.52,0.16,32.48c2.202,0.533,3.59-0.564,5.6,0c0.102,0.805,0.773,1.039,0.641,2.08
	c-0.728,1.258-3.708,1.077-5.44,0.8c-1.165,0.87-1.37,3.835-0.96,5.28c-0.604,1.361-0.303,2.807-0.48,4.64
	c4.078,0.302,6.725,0.036,10.4,0.8c1.268-1.395,3.057,0.002,4.32,0.48c-0.424,0.573-0.297,1.275-0.16,2.08
	c-1.127,0.736-2.824,0.129-3.84,1.12c-3.787-1.469-7.619-1.061-12.16-1.28c-1.059-0.329-1.02-1.755-1.92-2.24
	c0.625-3.543,0.533-8.544,1.119-12.16c-0.215-0.371-0.264-0.908-0.479-1.28c0.937-1.2-0.485-1.955,0.479-3.04
	c-0.043-0.33-0.596-0.15-0.639-0.48c0.914-1.447-0.176-3.034-0.32-4.48c-0.054-0.533,0.287-0.721,0.32-1.28
	c0.058-0.997-0.164-2.331-0.16-3.52c0.003-1.27,0.014-2.551,0-3.84c-0.017-1.409,0-2.896,0-4.32c0-5.219,0.293-10.125,0.16-14.08
	c0.848-1.427,2.713-0.875,4.639-1.12c2.848,1.654,7.317,0.226,9.44,1.76C118.042,37.682,118.775,37.696,119.16,38.057z"/>
<path fill-rule="evenodd" clip-rule="evenodd" fill="#939081" d="M174.84,36.937c0.232,3.362,2.354,6.164,3.199,9.44
	c1.155,2.091,2.223,4.001,3.2,6.56c0.481,0.266,0.855,0.639,1.12,1.12c0.361-2.214,1.73-4.396,1.12-7.2
	c0.371,0.051,0.614-0.026,0.8-0.16c0.66-3.98,1.302-7.979,3.521-10.4c0.64,0,1.279,0,1.92,0c1.272,2.982-1.312,5.133-1.601,8.32
	c0.057,0.53,0.479,0.694,0.8,0.96c-2.088,0.737-2.074,4.254-2.079,6.56c-1.183,2.071-1.478,5.029-2.4,7.36
	c0.323,4.905-2.893,9.48-2.88,14.88c0.074,0.341-0.229,0.305-0.48,0.32c0.387,2.386-1.334,3.733-0.479,5.6
	c-0.228-0.014-0.453-0.026-0.48,0.16c-0.859,2.287-0.828,5.465-1.76,7.68c-2.031,0.335-3.159-0.79-3.2-2.88
	c1.844-1.627,1.164-5.271,2.24-7.36c-0.011-0.469-0.365-0.594-0.64-0.8c1.211-0.143,1.686-1.736,1.12-2.72
	c0.339-1.267,1.295-2.681,0.64-4c0.669,0.135,0.634-0.434,0.96-0.64c-0.352-3.089,1.256-5.971,1.12-8.8
	c-0.184-0.503,0.251-0.389,0.319-0.64c-0.072-1.018-1.136-0.876-0.64-2.08c-3.664-4.016-4.05-11.31-7.84-15.2
	c0.934-1.059-0.38-2.544-0.48-4c-0.02-0.353-0.679-0.068-0.96-0.16c0-0.48,0-0.96,0-1.44c0.214,0,0.427,0,0.641,0
	C171.453,35.066,174.082,36.24,174.84,36.937z"/>
<path fill-rule="evenodd" clip-rule="evenodd" fill="#939081" d="M144.28,92.777c0.326,0.527,0.585,1.122,0.96,1.6
	c-0.684,1.503-0.326,4.047-1.439,5.119c0.662,1.178-0.098,2.332-0.48,3.361c0.723,3.469-1.3,7.501-0.32,10.719
	c-0.724-0.297-0.277,0.576-0.64,0.641c-0.419,3.685,0.027,7.443-1.44,10.561c0.259,0.381,0.256,1.023,0.48,1.439
	c-0.871,1.197-0.387,2.484-0.48,3.84c-0.224,3.254-1.84,6.447-1.439,10.08c-0.335,0.465-0.639,0.961-0.96,1.439
	c0.391,1.404-0.642,1.775-0.32,3.52c-1.414,1.98-0.369,5.799-2.88,6.881c-2.251,0.119-4.342-1.09-4.64-3.041
	c-0.191-1.246,0.745-2.662-0.641-3.359c0.092-1.277,0.476-2.695,0.32-3.84c-0.062-0.461-0.491-0.541-0.64-0.961
	c-0.086-0.242,0.362-0.361,0.319-0.639c-0.055-0.354-0.466-0.334-0.479-0.48c-0.233-2.436-0.379-4.992-0.641-7.84
	c0.235-0.609-0.715-0.031-0.479-0.641c0.615-3.588-0.776-7.486-1.12-12c-0.024-0.324,0.207-0.8,0.16-1.12
	c-0.064-0.448-0.436-0.73-0.48-1.12c-0.122-1.067,0.15-2.194,0-3.2c-0.186-1.248-0.805-2.34-0.8-3.52
	c0.008-2.006,1.216-3.988,0-5.76c-0.066-1.068,0.569-1.98,0.48-3.04c-0.038-0.45-0.491-0.827-0.48-1.28
	c0.009-0.376,0.478-0.736,0.48-1.12c0.007-1.136-0.623-2.199-0.96-3.36c0.372-0.428,0.549-1.05,0.96-1.44
	c1.644-0.204,2.238,0.642,3.52,0.8c-0.312,2.519,0.812,4.677,0.641,7.2c-0.102,1.493-0.593,2.889,0.479,4.16
	c-0.568,1.484-0.624,3.793,0.16,5.119c-1.392,2.156,0.018,4.711,0,7.041c-0.003,0.386-0.344,0.879-0.32,1.279
	c0.035,0.582,0.414,1.293,0.48,1.92c0.088,0.838-0.248,1.676-0.16,2.4c0.076,0.637,0.662,1.106,0.8,1.76
	c0.477,2.258,0.131,5.611,0.48,8.16c0.181,1.324,1.021,2.266,0.319,3.84c1.473,1.344,0.838,3.6,1.28,5.6
	c1.517-4.654,2.801-10.387,2.4-15.68c0.813-0.994,0.464-2.328,0.64-3.68c0.095-0.732,0.521-1.445,0.64-2.24
	c0.722-4.812-0.187-10.862,1.44-14.88c-0.272-0.314-0.184-0.989-0.48-1.28c0.768-1.727,1.424-4.281,1.12-6.56
	c0.75-1.111,0.991-3.055,0.8-4.64C141.638,93.577,142.421,92.096,144.28,92.777z"/>
<path fill-rule="evenodd" clip-rule="evenodd" fill="#939081" d="M115.64,94.857c2.021,2.979,2.66,7.455,2.56,11.36
	c-0.022,0.662,1.03,0.25,0.8,1.12c-1.979,2,0.158,5.029-1.119,7.521c0.11,0.635,0.703,0.789,0.959,1.279
	c-1.34,4.557-0.381,10.553-1.439,15.52c2.344,3.445-0.204,8.826,1.28,12.801c-0.136,0.236-0.403,0.344-0.8,0.318
	c0.078,2.266-1.349,3.025-1.601,4.961c-1.882,0.678-3.824,2.268-6.239,2.24c-0.634-0.008-1.196-0.545-1.92-0.641
	c-0.348-0.045-0.463,0.287-0.801,0.32c-0.38,0.037-3.154-0.467-3.68-0.641c-3.432-1.129-4.434-5.471-4-9.6
	c1.209-1.193,0.329-3.258-0.16-4.48c0.452,0.133,0.414-0.225,0.8-0.16c-0.154-1.793,0.39-4.08,0-5.918
	c-0.07-0.332-0.442-0.654-0.479-0.961c-0.119-0.955,0.352-2.348,0.32-3.52c-0.01-0.346-0.336-0.793-0.32-1.121
	c0.059-1.234,0.561-2.401,0.479-3.68c-0.185-2.897-0.433-7.244,0.16-10.56c-0.755-1.208-0.655-2.848,0-4.159
	c-0.729-0.498-1.112-1.341-1.44-2.24c0.519-2.564,1.84-4.198,2.881-6.561c1.104-0.335,1.884-0.996,2.24-2.08
	c1.397,0.225,1.197-1.148,2.56-0.96c0.23-0.036,0.056-0.478,0.319-0.48c1.924,0.774,3.381-0.837,4.16-0.96
	C112.809,93.318,113.71,95.098,115.64,94.857z M114.36,104.778c0.12-0.547-0.649-0.204-0.479-0.801c0.875-1.4-0.159-2.54-0.16-4.32
	c-0.713-0.556-1.304-2.357-2.4-1.12c-0.705-0.041-1.237-0.255-2.08-0.16c-2.355,0.826-4.928,2.594-5.6,4.64
	c-0.211,0.641,0,2.097,0,2.4c-0.002,1.265-0.29,2.958-0.16,3.84c0.16,1.092,0.879,2.104,0.16,3.2
	c0.172,0.414,0.578,0.595,0.64,1.119c-0.999,2.825,0.139,4.923-0.479,8.48c0.967,2.174-0.806,5.881,0.8,8.161
	c-0.151,0.488-0.778,0.502-0.8,1.119c1.348,3.109-0.488,5.586,0,9.281c0.027,0.211,0.43,0.604,0.479,0.799
	c0.325,1.25-0.122,2.648,0.32,4c0.14,0.619-0.698,0.262-0.479,0.961c0.324,0.74,1.475,0.658,2.56,0.639
	c0.752,1.76,3.282,0.242,4.64,0.961c4.207-1.164,3.661-7.385,2.88-12.16c0.624-3.641-0.05-7.652,0.16-11.36
	c0.089-1.578,0.853-3.014,0.8-4.32c-0.05-1.258-0.706-1.743-0.479-2.88c0.361-1.814,0.384-3.812,0.159-5.92
	c-0.266,0-0.533,0-0.799,0c1.119-1.599,0.846-3.588-0.16-5.28C114.097,105.687,114.523,105.528,114.36,104.778z"/>
<path fill-rule="evenodd" clip-rule="evenodd" fill="#939081" d="M187.48,102.698c-0.591,0.369-1.401,0.518-2.24,0.64
	c-2.151-1.233-1.566-4.843-4-5.44c-3.474-0.853-6.184,3.876-6.72,7.2c-0.207,1.282,0.344,2.338-0.48,3.2
	c0.515,1.415-0.109,2.855-0.319,4c-0.232,1.263,0.436,2.316,0.479,3.68c0.046,1.42-0.463,2.93-0.319,4.32
	c0.15,1.47,0.57,3.141,0.96,4.32c0.989,3,3.81,4.157,5.76,6.559c0.505-0.078,0.564,0.289,1.12,0.16
	c0.313,1.607,1.16,2.68,2.72,3.041c-0.202,1.912,1.747,2.617,2.4,4.16c-0.287,2.24,0.263,4.24,0,6.08
	c-0.571,3.998-4.236,5.982-7.521,7.199c-0.701,0.168-0.525-0.541-1.12-0.48c-0.67-0.029-0.494,0.785-1.28,0.641
	c-0.615-0.719-1.466-1.201-2.72-1.281c-0.404-1.621-2.147-1.904-2.399-3.68c0.025-0.188,0.291-0.135,0.479-0.16
	c-0.312-1.219-0.655-2.156-0.96-3.68c0.578-0.275,0.364-1.342,0.8-1.76c1.535-0.258,2.877,0.926,3.681,1.92
	c-0.189,1.135,0.414,1.904-0.32,2.881c0.968,3.262,5.979,1.645,6.88-0.48c-0.045-0.328-0.428-0.32-0.64-0.48
	c-0.027-0.346,0.567-0.072,0.8-0.16c2.565-4.652-1.695-9.199-4.48-11.52c-0.492-0.119-0.308,0.439-0.8,0.32c0-0.268,0-0.533,0-0.801
	c-1.036-0.734-1.709-1.725-2.72-2.879c-0.692-0.791-2.34-1.857-2.72-2.881c-0.034-0.09,0.171-0.863,0.159-0.959
	c-0.257-2.198-1.453-4.375-1.6-6.721c-0.052-0.818,0.362-1.67,0.32-2.56c-0.146-3.036-1.084-5.479,0-8.8
	c0.12-0.547-0.65-0.203-0.48-0.801c0.541,0.008,0.694-0.372,0.96-0.639c-0.133-0.721-0.152-1.555-0.479-2.08
	c1.104-2.896,2.532-5.468,3.84-8.161c1.552-0.901,3.361-1.545,4.64-2.72c2.303,0.779,5.1,0.427,6.4,2.4
	C185.733,98.404,187.953,99.454,187.48,102.698z"/>
<path fill-rule="evenodd" clip-rule="evenodd" fill="#939081" d="M167.16,98.057c-0.632,0.704-1.288,1.506-2.24,1.6
	c-0.681,0.068-1.257-0.426-1.92-0.479c-0.521-0.043-1.034,0.347-1.6,0.319c-1.75-0.083-4.338-1.618-6.72-1.439
	c-0.452,8.403-0.242,17.855-0.641,26.24c1.192,1.649,0.007,4.065,0.801,6.241c-0.189,0.504-0.181,1.207-0.48,1.6
	c0.165,0.369,0.551,0.516,0.48,1.119c2.218,0.816,3.702-0.602,5.92,0c0.253,0.76,0.878,1.148,0.8,2.24
	c-0.871,1.416-4.061,1.209-6.08,0.961c-1.15,0.77-0.573,3.266-1.28,4.479c0.776,1.703-0.396,3.838-0.16,6.24
	c2.301,0.404,4.965,0.125,7.521,0.32c1.284,0.098,2.512,0.596,3.68,0.48c0.984-0.098,1.476-0.592,2.4-0.48
	c1.003,0.121,1.409,0.816,2.399,1.121c-0.735,0.369-0.023,1.555-0.479,2.398c-0.702,0.58-1.312-0.16-2.08,0
	c-0.808,0.17-1.055,0.932-1.76,0.961c-0.434,0.018-1.271-0.732-2.561-0.961c-1.655-0.291-3.854-0.057-5.6-0.16
	c-1.778-0.104-4.447,0.115-5.44-0.479c-0.821-0.492-0.893-1.977-1.439-2.24c0.024-4.197,1.258-10.014,0.64-14.4
	c0.003-0.637,0.153-1.127,0.48-1.439c0.131-0.611-0.771-0.189-0.641-0.801c0.317-0.27,0.256-0.918,0.641-1.119
	c-0.127-0.354-0.752-0.209-0.801-0.641c1.372-1.975-0.9-4.359,0-6.241c-0.902-9.025,0.367-19.719,0-27.679
	c0.854-1.577,2.855-1.108,4.96-1.28C159.423,96.601,165.857,93.995,167.16,98.057z"/>
<path fill-rule="evenodd" clip-rule="evenodd" fill="#939081" d="M83.16,96.137c-1.138,4.814-0.076,11.051-0.479,16.8
	c-0.243,3.468-1.13,6.956,0,9.921c-1.017,1.8-0.415,4.53-0.48,7.04c-0.044,1.66-0.595,3.205-0.159,4.641
	c0.139,0.512-0.247,0.5-0.48,0.639c0.277,1.656,0.67,3.227,0,4.641c0.641,2.1,0.088,5.389,0.64,7.84
	c3.183,0.283,6.965,0.484,9.601,0c1.105,1.592,3.223,0.371,3.84,2.561c-1,3.1-5.881,0.615-8.16,1.76
	c-3.664-1.115-8.74,0.629-8.641-4.32c0.034-1.662-0.662-3.885-0.64-5.439c0.026-1.893,0.853-3.797,0-5.6
	c1.341-3.219-0.015-8.613,0.96-12.161c0.229-0.709-0.541-0.419-0.479-0.961c1.053-4.908-0.661-10.221,0-14.879
	c0.086-0.607,0.425-0.905,0.64-1.44c-0.272-4.553-1.053-8.421,0.48-12.16C81.237,94.129,82.015,95.768,83.16,96.137z"/>
<path fill-rule="evenodd" clip-rule="evenodd" fill="#939081" d="M88.919,160.776c0.863,4.664,1.695,9.277,1.601,13.762
	c-0.02,0.924-0.726,1.783,0.16,2.559c0.179,4.393-2.191,6.236-4.16,8.48c-0.505-0.078-0.565,0.289-1.12,0.16
	c1.492,2.607,5.668,5.287,5.12,9.439c-0.571,0.336-0.843,0.971-1.92,0.801c-1.772-3.455-3.284-7.17-7.04-8.641
	c-0.552,1.834,0.346,4.463-0.48,5.76c0.049,0.592,0.68,0.602,0.961,0.961c-0.615,0.186-1.316,0.283-1.281,1.119
	c-0.833-0.086-1.445,0.049-1.92,0.32c-0.248-1.086-0.903-2.812,0-3.359c0.064-4.32-0.16-10.062-0.159-14.881
	c0.111-0.697-0.462-0.711-0.48-1.279c1.009-1.361,0.685-3.576,0.64-5.6c-0.078-3.67-0.502-7.463-0.479-11.201
	C81.262,156.224,86.395,158.681,88.919,160.776z M87.16,176.618c1.154-3.91,0.096-9.631-0.8-13.762
	c-1.143-0.988-2.577-2.363-4.64-1.92c-0.09,0.574-0.164,0.82-0.641,1.281c0.95,7.166-0.173,14.604,0.48,21.6
	C85.814,184.218,88.105,180.146,87.16,176.618z"/>
<path fill-rule="evenodd" clip-rule="evenodd" fill="#939081" d="M151.32,185.737c1.913,2.906,5.647,5.271,5.28,9.439
	c-0.614,0.293-0.886,0.928-1.92,0.801c-0.611-0.189-0.454-1.146-1.12-1.281c0-0.318,0-0.639,0-0.959
	c-1.519-2.695-3.097-5.33-6.24-6.4c0.713,2.309-0.866,5.379,0.64,6.721c-0.964,0.475-1.665,1.215-2.88,1.439
	c-0.868-0.902-0.463-2.242-0.8-3.039c0.05-0.219,0.4-0.133,0.64-0.16c-0.503-3.48,0.354-7.777,0-11.84
	c-0.043-0.498-0.46-0.975-0.479-1.441c-0.04-0.932,0.677-2.057-0.16-2.719c0.406-0.66,0.495-1.639,0.8-2.4
	c-0.741-5.092-0.298-9.697-0.8-14.561c2.704-3.289,8.14-0.646,10.561,1.439c0.47,2.145,1.021,4.207,1.119,6.721
	c0.026,0.188,0.292,0.135,0.48,0.16c-0.562,2.025,0.241,4.51,0.16,6.721c-0.022,0.604-0.343,1.037-0.32,1.6
	c0.031,0.76,0.43,0.727,0.32,1.439c-0.453,2.939-0.694,4.854-2.4,6.561c-0.569,0.568-1.598,0.695-1.76,1.6
	C152.064,185.628,151.839,185.829,151.32,185.737z M153.08,176.618c1.201-3.65,0.286-9.848-0.8-13.922
	c-1.186-0.895-2.626-2.205-4.64-1.76c-0.066,0.406,0.242,0.871-0.48,1.121c-0.067,2.65,0.646,5.08,0.48,7.359
	c-0.05,0.68-0.488,1.398-0.48,2.08c0.008,0.645,0.46,1.277,0.48,1.92c0.107,3.457-0.769,6.859-0.16,10.4
	C151.752,184.329,154.178,180.138,153.08,176.618z"/>
<path fill-rule="evenodd" clip-rule="evenodd" fill="#939081" d="M136.76,159.017c1.634,2.17,1.211,5.887,2.08,8.16
	c-1.176,1.479,0.193,3.342-0.641,4.801c-0.044,0.631,0.685,0.488,0.641,1.119c-0.736,0.863-0.354,2.5-0.32,3.68
	c0.021,0.695-0.445,1.59-0.48,2.24c-0.04,0.756,0.257,1.848,0.16,2.721c-0.033,0.305-0.351,0.695-0.319,0.959
	c0.054,0.465,0.535,0.818,0.64,1.281c0.544,2.412-0.791,5.068,0.16,7.359c-0.16,0-0.32,0-0.48,0
	c-0.001,1.492-1.002,1.984-1.12,3.359c-4.668,2.453-12.256,1.471-11.039-5.6c-0.25-0.568,0.543-0.096,0.479-0.479
	c0.05-1.012-0.252-1.67-0.479-2.4c0.129-0.139,0.438-0.096,0.479-0.32c-0.13-5.318-0.464-11.047,0.16-16.32
	c-0.216-0.318-0.306-0.762-0.48-1.119c0.085-0.449,0.235-0.832,0.32-1.281c-0.063-0.789-0.709-0.998-0.8-1.76
	c0.654-3.238,2.6-5.186,5.12-6.561c0.533,0,1.066,0,1.6,0C133.832,157.626,135.065,158.839,136.76,159.017z M135.32,166.378
	c-0.119-0.494,0.439-0.309,0.32-0.801c-0.606-1.361,0.264-3.672-1.44-4.16c-0.905-0.26-1.729,0.602-3.04,0.48
	c-0.729,0.869-1.582,1.617-2.24,2.561c0.208,5.191,0.201,8.588,0.48,13.119c-0.229,5.275-0.12,9.371,0,14.881
	c1.685,0.498,2.999,0.596,4.32,0.799c0.513-0.393,1.119-0.693,1.6-1.119c0.941-4.6,0.002-11.053,0.32-15.52
	c0.353-0.182,0.362-0.705,0.479-1.121c-0.63-1.834,0.095-3.477-0.16-5.439c-0.097-0.277-0.759,0.012-0.8-0.32
	C136.299,169.067,135.7,167.263,135.32,166.378z"/>
<path fill-rule="evenodd" clip-rule="evenodd" fill="#939081" d="M189.4,164.458c-0.544,0.148-1.173,0.213-1.76,0.318
	c-1.152-1.1-0.829-3.199-2.4-3.52c-3.951-0.807-4.205,7.096-4.64,9.76c0.506,0.881,0.197,1.668,0.16,2.881
	c-0.124,3.977,1.529,6.281,4.159,8.48c0.268,0,0.534,0,0.801,0c0.292,0.934,0.541,1.912,1.76,1.92
	c-0.036,1.529,1.177,1.809,1.6,2.879c0.914,5.986-2.484,8.805-6.56,8.801c-2.881-0.963-4.394-4.238-3.04-7.041
	c2.01-0.031,3.093,1.637,2.4,3.361c0.307,2.066,4.94,0.232,3.52-0.801c0.335-0.252,1.03-0.143,1.12-0.641
	c0.377-3.629-1.585-4.922-3.2-6.559c-0.273-0.008-0.414,0.119-0.479,0.32c-0.823-1.898-2.497-2.943-3.681-4.48
	c-0.567-3.41-1.426-7.637-0.8-12c0.076-0.504-0.199-0.654-0.479-0.801c0.135-0.238,0.515-0.23,0.8-0.32
	c-0.17-0.82-0.004-0.982-0.32-1.6c0.88-1.734,1.663-3.562,2.56-5.279c2.131-0.92,2.508-1.998,5.601-1.441
	c0.531,0.482,1.261,0.766,1.76,1.281C188.503,161.552,190.067,162.513,189.4,164.458z"/>
<path fill-rule="evenodd" clip-rule="evenodd" fill="#939081" d="M106.68,161.257c-1.769,2.225-5.188,0.189-8.16,0.16
	c-0.108,7.631-0.457,15.699,0.16,22.4c1.592,0.111,2.397-0.303,3.84-0.16c0.007,0.586,0.856,1.16,0.319,1.76
	c-0.368,1.072-2.389,0.49-3.68,0.641c-1.23,1.686-0.559,4.447-0.96,6.561c3.776,0.67,7.52-0.293,10.4,0.959
	c-0.337,0.41-0.252,1.242-0.479,1.76c-3.688,1.131-6.851-0.629-11.041-0.16c-0.729-0.336-0.914-1.219-1.439-1.76
	c0.497-5.354,1.086-10.822,0-15.039c0.402-2.467-0.086-6.422,0-10.24c0.045-1.998,0.532-3.949,0.48-5.6
	c-0.049-1.535-0.705-2.85,0.639-3.682c1.782-0.398,3.884,0.527,5.761,0.641C104.48,159.616,106.142,159.37,106.68,161.257z"/>
<path fill-rule="evenodd" clip-rule="evenodd" fill="#939081" d="M163,195.817c-0.998-1.416-1.146-3.584-1.119-5.279
	c0.008-0.5,0.454-0.951,0.479-1.441c0.019-0.344-0.43-0.449-0.479-0.799c-0.129-0.898,0.486-2.061,0.479-2.881
	c-0.012-1.369-0.451-2.771-0.479-4.16c-0.059-2.783,0.285-5.562,0.159-8.32c-0.196-4.301-0.112-8.738-0.319-13.76
	c4.097-1.117,9.144-0.146,10.88,2.561c1.53,4.49,0.52,10.133,0.64,15.68c0.118,5.453,1.652,11.391-0.479,16
	c-1.205,0.129-1.518,1.705-2.721,1.92c-0.544,0.098-1.048-0.295-1.6-0.32C166.68,194.938,164.89,196.349,163,195.817z
	 M164.44,161.417c0,0.16,0,0.32,0,0.48c-0.138,4.162,0.117,8.441,0.32,12.48c0.102,2.025-0.348,4.135-0.32,6.24
	c0.038,2.955,0.442,5.973,0.32,8.799c-0.051,1.162-0.547,2.234,0.159,3.359c1.494,0,2.987,0,4.48,0
	c1.398-0.764,2.103-2.754,2.08-4.959c-0.041-3.947-0.684-9.572-0.64-12.961c0.057-4.389,0.179-10.396-1.28-12.639
	C167.903,161.669,166.249,161.47,164.44,161.417z"/>
<path fill-rule="evenodd" clip-rule="evenodd" fill="#939081" d="M122.68,162.856c-2.345,0.633-4.717-1.314-6.72-0.639
	c-1.797,0.605-1.304,2.729-1.761,4.799c-0.034,0.568,0.751,0.316,0.64,0.961c-0.266,0-0.533,0-0.799,0
	c-0.053,0.857-0.518,2.266,0,2.719c-1.115,1.598,0.223,4.633-0.801,5.762c0.273,4.557-1.103,10.74,0.32,14.879
	c0.365,1.064,1.021,0.637,2.08,1.121c0.066,0.029,0.234,0.586,0.32,0.639c0.523,0.326,1.143,0.029,1.439,0.48
	c1.871-0.486,6.461-0.781,5.12,2.08c-3.163,0.992-9.104-0.064-11.2-2.561c-0.846-2.396-0.876-4.93-1.12-7.359
	c-0.227-2.26,0.433-5.07,0.32-6.881c-0.036-0.57,0.433-1.018,0.479-1.6c0.015-0.18-0.311-0.676-0.319-0.799
	c-0.058-0.795,0.096-2.047,0.159-3.041c0.141-2.164,0.263-4.713,0.48-6.24c0.071-0.498,0.533-0.91,0.641-1.439
	c0.316-1.564-0.072-3.396,1.119-4.641c2.161-1.76,5.778-0.828,8.801-0.479c0.427,0.371,0.779,0.818,1.119,1.279
	C122.873,162.196,122.732,162.483,122.68,162.856z"/>
</svg>
