<?xml version="1.0" encoding="utf-8"?>
<!-- Generator: Adobe Illustrator 15.0.0, SVG Export Plug-In  -->
<!DOCTYPE svg PUBLIC "-//W3C//DTD SVG 1.1//EN" "http://www.w3.org/Graphics/SVG/1.1/DTD/svg11.dtd" [
	<!ENTITY ns_flows "http://ns.adobe.com/Flows/1.0/">
]>
<svg version="1.1"
	 xmlns="http://www.w3.org/2000/svg" xmlns:xlink="http://www.w3.org/1999/xlink" xmlns:a="http://ns.adobe.com/AdobeSVGViewerExtensions/3.0/"
	 x="0px" y="0px" width="376px" height="377px" viewBox="0 0 376 377" overflow="visible" enable-background="new 0 0 376 377"
	 xml:space="preserve">
<defs>
</defs>
<path fill-rule="evenodd" clip-rule="evenodd" fill="#909090" d="M192.235,376.527c-3.009,0.732-3.212-2.429-5.597-2.574
	c-13.704-33.504-28.001-66.183-41.06-100.579c-5.459-1.914-9.172-6.235-13.058-10.317c-46.664-1.319-93.242,3.604-130.632-5.155
	c-2.516-7.787-2.516-20.584,0-28.372c8.113-10.593,23.158-7.627,37.318-7.736c13.704-0.102,28.016-1.029,41.06,0
	c14.472,1.146,30.22,5.931,37.326-10.317c-0.116-14.45-7.062-19.475-11.202-28.371c-24.086-3.952-45.439-0.725-69.046-2.574
	c-10.709-0.841-23.035-1.406-33.592-7.736c-0.188-10.579-0.37-21.143,1.871-28.371c25.232-8.258,52.733-1,76.507-7.736
	c3.698-8.65,0.421-15.473-1.863-23.209c-6.308-21.324-19.83-25.725-41.06-25.79c-11.876-0.043-23.115,5.54-33.584,0
	c-2.596-8.171-2.596-22.781,0-30.953C18.803,46.824,41.069,61.55,50.4,43.844c3.263-19.78-8.389-30.489-5.598-41.27
	C57.114-0.196,56.491,2.407,70.934,0c2.32,5.068,4.974,9.999,7.461,15.473c2.574,5.67,2.443,12.913,7.468,15.473
	c-0.762,6.214,3.408,5.612,1.863,12.899c4.676-0.442,5.844,3.966,7.468,7.736c63.442,5.771,126.739,1.298,190.355,2.574
	c10.789-12.855,14.929-36.484,26.131-51.58c8.512,1.124,20.548-2.603,26.124,2.581c-0.5,15.386-12.457,26.675-5.598,43.844
	c7.483,14.581,33.273,3.872,42.923,15.473c0.362,9.97,0.064,19.004-1.871,25.79c-13.441,12.674-40.479,0-57.852,5.163
	c-9.338,2.777-15.415,10.897-18.663,20.628c-1.378,4.154-3.618,12.594,0,20.635c9.643,9.404,23.194,4.64,33.591,5.155
	c3.045,0.152,6.946,2.363,11.202,2.581c12.717,0.652,25.305-5.416,33.592,10.317c3.864,32.78-17.547,25.558-33.592,25.79
	c-8.157,0.116-19.823,2.378-29.857,2.574c-13.508,0.261-27.342-2.582-33.599,0c-7.512,3.103-16.575,16.56-14.929,28.371
	c3.234,23.238,37.166,15.27,57.852,15.48c5.822,0.051,15.03,1.733,24.26,2.574c11.064,1.008,23.216-3.038,27.994,7.736
	c1.436,9.716-2.27,12.333-1.87,20.635c-20.831,12.166-51.305,4.756-78.378,5.155c-9.23,0.138-17.662,3.778-29.857,2.582
	c-8.643-0.856-8.788-1.689-16.799,2.581c-2.487,1.319-5.163,0.602-7.461,2.574c-10.912,9.375-9.563,24.681-20.526,36.108
	c3.72,9.607-3.458,12.217-5.604,18.054c-1.298,3.56-0.544,6.641-1.863,10.317c-0.928,2.588-2.908,3.263-3.727,5.155
	c-2.066,4.727-3.56,10.738-5.604,15.473C198.601,362.773,195.055,367.703,192.235,376.527z M192.235,270.792
	c-8.338,0.667-9.469,19.062,0,18.054C194.903,285.402,194.903,274.237,192.235,270.792z M153.046,211.476
	c0.957,1.624,2.53,6.424,3.734,7.736c6.127,6.729,43.141,11.645,54.118,7.744c11.579-4.133,20.461-21.026,18.663-30.953
	c-2.189-12.05-17.626-15.088-29.857-15.473c-16.22-0.515-36.608,4.111-48.528,5.155
	C147.137,198.143,150.284,206.799,153.046,211.476z M128.786,139.268c42.22-1.682,85.056,6.497,123.165,0
	c5.844-9.382,12.775-21.222,9.339-36.107c-6.497-10.158-16.401-7.062-26.131-7.736c-31.554-2.175-58.555-0.399-85.839,0
	c-12.138,0.174-23.296-6.388-31.729,2.581C112.479,116.944,122.296,128.74,128.786,139.268z"/>
</svg>
