<?xml version="1.0" encoding="utf-8"?>
<!-- Generator: Adobe Illustrator 15.0.0, SVG Export Plug-In  -->
<!DOCTYPE svg PUBLIC "-//W3C//DTD SVG 1.1//EN" "http://www.w3.org/Graphics/SVG/1.1/DTD/svg11.dtd" [
	<!ENTITY ns_flows "http://ns.adobe.com/Flows/1.0/">
]>
<svg version="1.1"
	 xmlns="http://www.w3.org/2000/svg" xmlns:xlink="http://www.w3.org/1999/xlink" xmlns:a="http://ns.adobe.com/AdobeSVGViewerExtensions/3.0/"
	 x="0px" y="0px" width="285px" height="23px" viewBox="0 0 285 23" overflow="visible" enable-background="new 0 0 285 23"
	 xml:space="preserve">
<defs>
</defs>
<rect x="-2.732" y="9.026" transform="matrix(-0.7071 -0.7071 0.7071 -0.7071 10.7452 25.942)" fill="#11516D" width="26.954" height="3.439"/>
<rect x="13.897" y="9.026" transform="matrix(-0.7071 0.7071 -0.7071 -0.7071 54.3295 -1.0128)" fill="#11516D" width="26.954" height="3.439"/>
<rect x="30.714" y="8.583" transform="matrix(-0.7071 -0.7071 0.7071 -0.7071 67.0855 48.3937)" fill="#11516D" width="25.702" height="3.439"/>
<rect x="46.458" y="8.584" transform="matrix(-0.7071 0.7071 -0.7071 -0.7071 108.5328 -24.3493)" fill="#11516D" width="25.702" height="3.439"/>
<rect x="62.018" y="9.026" transform="matrix(-0.7071 -0.7071 0.7071 -0.7071 121.2803 71.7272)" fill="#11516D" width="26.954" height="3.439"/>
<rect x="78.95" y="9.767" transform="matrix(-0.7071 0.7071 -0.7071 -0.7071 164.1165 -45.0066)" fill="#11516D" width="24.859" height="3.439"/>
<rect x="94.09" y="9.767" transform="matrix(0.7071 0.7071 -0.7071 0.7071 39.3211 -71.9568)" fill="#11516D" width="24.859" height="3.439"/>
<rect x="109.223" y="9.767" transform="matrix(-0.7071 0.7071 -0.7071 -0.7071 215.7964 -66.4131)" fill="#11516D" width="24.859" height="3.439"/>
<rect x="124.364" y="9.767" transform="matrix(0.7071 0.7071 -0.7071 0.7071 48.1879 -93.3633)" fill="#11516D" width="24.859" height="3.439"/>
<rect x="139.792" y="10.465" transform="matrix(-0.7071 0.7071 -0.7071 -0.7071 266.789 -86.1385)" fill="#11516D" width="22.884" height="3.439"/>
<rect x="153.125" y="11.461" transform="matrix(-0.7071 -0.7071 0.7071 -0.7071 274.0172 139.8615)" fill="#11516D" width="25.7" height="3.439"/>
<rect x="168.881" y="11.461" transform="matrix(-0.7071 0.7071 -0.7071 -0.7071 319.5513 -106.0051)" fill="#11516D" width="25.699" height="3.439"/>
<rect x="184.627" y="11.461" transform="matrix(-0.7071 -0.7071 0.7071 -0.7071 327.7935 162.1364)" fill="#11516D" width="25.7" height="3.439"/>
<rect x="200.382" y="11.461" transform="matrix(-0.7071 0.7071 -0.7071 -0.7071 373.3274 -128.2803)" fill="#11516D" width="25.699" height="3.439"/>
<rect x="216.253" y="11.163" transform="matrix(0.7071 0.7071 -0.7071 0.7071 76.089 -157.9294)" fill="#11516D" width="24.859" height="3.439"/>
<rect x="231.416" y="11.163" transform="matrix(-0.7071 0.7071 -0.7071 -0.7071 425.3802 -150.4326)" fill="#11516D" width="24.859" height="3.439"/>
<rect x="246.437" y="11.461" transform="matrix(-0.7071 -0.7071 0.7071 -0.7071 433.3107 205.843)" fill="#11516D" width="25.7" height="3.439"/>
<rect x="262.193" y="11.461" transform="matrix(-0.7071 0.7071 -0.7071 -0.7071 478.8441 -171.9876)" fill="#11516D" width="25.699" height="3.439"/>
</svg>
