<svg xmlns="http://www.w3.org/2000/svg" viewBox="389.999 665.562 986.153 176.108"><path fill="#1F375B" d="M624.22 810.49h19.21c.834 0 1.51-.676 1.51-1.51v-44.7h34.38c.637 0 1.205-.4 1.42-1l6.09-16.81c.27-.79-.15-1.648-.938-1.918-.155-.053-.318-.08-.482-.082h-40.47v-28h51.71c.637 0 1.205-.4 1.42-1l6.15-16.81c.27-.79-.15-1.648-.938-1.918-.155-.053-.318-.08-.482-.082h-78.58c-.834 0-1.51.676-1.51 1.51v110.81c0 .834.676 1.51 1.51 1.51zM747.24 697.63l-40.31 110.84c-.27.79.15 1.648.938 1.918.155.053.318.08.482.082h20c.64.004 1.214-.397 1.43-1l6.53-19.13h40.46l6.37 19.12c.216.603.79 1.004 1.43 1h19.94c.834-.005 1.506-.684 1.502-1.518 0-.164-.03-.327-.082-.482L765.4 697.63c-.215-.6-.783-1-1.42-1h-15.32c-.637 0-1.205.4-1.42 1zm-4.76 74l14.39-41.42 13.91 41.42h-28.3zM896.8 766.36l-44.65-69c-.28-.43-.757-.69-1.27-.69h-17.5c-.834 0-1.51.676-1.51 1.51v110.8c0 .834.676 1.51 1.51 1.51h19.21c.834 0 1.51-.676 1.51-1.51v-68.37l44.65 69.19c.28.43.757.69 1.27.69h17.5c.834 0 1.51-.676 1.51-1.51V698.15c0-.834-.676-1.51-1.51-1.51h-19.21c-.834 0-1.51.676-1.51 1.51v68.21zM1133.3 770.68c0 13.11-7.83 20.95-19.83 20.95s-19.67-7.84-19.67-20.95v-72.53c0-.834-.676-1.51-1.51-1.51h-19.2c-.834 0-1.51.676-1.51 1.51v73.33c0 24.15 18.55 40 41.9 40 23.35 0 41.9-15.83 41.9-40v-73.33c0-.834-.676-1.51-1.51-1.51h-19c-.834 0-1.51.676-1.51 1.51v72.53h-.06zM1266.71 715.47l6.06-16.81c.27-.79-.15-1.648-.938-1.918-.155-.053-.318-.08-.482-.082h-78.49c-.834 0-1.51.676-1.51 1.51v110.81c0 .834.676 1.51 1.51 1.51h78.48c.834-.005 1.506-.684 1.502-1.518 0-.164-.028-.327-.082-.482l-6.06-16.81c-.215-.6-.783-1-1.42-1h-51.7V763h41.64c.834 0 1.51-.676 1.51-1.51v-16.81c0-.834-.676-1.51-1.51-1.51h-41.64v-26.7h51.71c.637 0 1.205-.4 1.42-1zM1368.56 790.67h-47v-92.52c0-.834-.675-1.51-1.51-1.51h-19.25c-.834 0-1.51.676-1.51 1.51v110.83c0 .834.676 1.51 1.51 1.51h73.85c.834-.005 1.506-.684 1.502-1.518 0-.164-.028-.327-.082-.482l-6.07-16.83c-.22-.602-.798-1-1.44-.99zM1027.92 707.56c-7.52-7.52-18.23-10.87-30.06-10.87H952.7c-.834 0-1.51.678-1.508 1.512 0 .097.01.193.028.288l3.34 16.81c.156.674.75 1.156 1.44 1.17h39.74c7.68 0 12.79 2.4 16.63 7 4.16 5.12 4.8 12.31 4.8 29.58s-.64 25.43-4.8 30.54c-3.84 4.64-9 7-16.63 7H979v-59.17c0-.834-.676-1.51-1.51-1.51h-19.21c-.834 0-1.51.676-1.51 1.51v77.56c0 .834.676 1.51 1.51 1.51h39.58c11.83 0 22.55-3.36 30.06-10.87 12.79-12.79 11.51-29.42 11.51-46.53s1.28-32.78-11.51-45.53z"/><g><path fill="#1493FF" d="M462.756 694.656c3.398-7.323 7.332-14.233 11.81-20.6 1.803-2.562 3.67-5.004 5.595-7.332.378-.456.065-1.14-.527-1.15-.504-.007-1.01-.012-1.515-.012-20.137 0-39.482 3.382-57.51 9.595-9.34 3.22-18.33 7.2-26.887 11.868-2.353 1.285-3.784 3.77-3.72 6.452.244 9.973 1.322 19.74 3.152 29.237 1.72 8.93 4.11 17.62 7.124 26.017 3.623 10.1 8.14 19.77 13.456 28.922 9.81 16.88 22.332 31.985 36.98 44.712 2.51 2.18 5.08 4.29 7.71 6.326.57.44 1.35-.16 1.083-.83-1.083-2.71-2.095-5.472-3.03-8.28-4.485-13.46-7.263-27.96-8.216-42.964-.042-.653-.268-1.28-.65-1.81-3.655-5.056-7-10.348-9.994-15.86 2.75-1.46 5.582-2.783 8.495-3.948 1.274-.51 2.148-1.683 2.245-3.05.717-10.048 2.248-19.863 4.576-29.278.127-.51-.328-.977-.84-.86-9.13 2.085-17.852 5.242-26.026 9.334-2.32-7.766-4.02-15.8-5.028-24.048 12.22-5.178 25.292-8.735 38.943-10.42 1.216-.15 2.26-.91 2.776-2.02z"/><path fill="#1493FF" d="M562.513 687.025c-8.557-4.67-17.545-8.648-26.886-11.867-12.46-4.294-25.55-7.23-39.096-8.634-1.068-.11-2.14.267-2.89 1.037-7.32 7.502-13.77 16.62-19.075 26.995-.243.476.113 1.043.647 1.032.967-.02 1.935-.03 2.907-.03 20.25 0 39.538 4.11 57.08 11.542-1.01 8.247-2.707 16.28-5.03 24.047-2.907 9.73-6.79 19.038-11.55 27.8-10.015 18.433-23.877 34.47-40.5 47.046-5.764-4.36-11.197-9.13-16.25-14.277-.483-.492-1.316-.077-1.205.604 1.253 7.632 3.016 14.988 5.242 21.987 3.107 9.767 7.11 18.838 11.854 27.01.2.34.642.455.983.255 9.532-5.57 18.496-12.006 26.78-19.205 14.65-12.728 27.172-27.833 36.98-44.712 5.318-9.15 9.834-18.822 13.457-28.92 3.013-8.397 5.403-17.088 7.124-26.018 1.83-9.497 2.908-19.262 3.15-29.235.066-2.685-1.366-5.172-3.72-6.457z"/></g></svg>